<svg width="225" height="226" viewBox="0 0 225 226" fill="none" xmlns="http://www.w3.org/2000/svg">
<g filter="url(#filter0_d_32_57)">
<path fill-rule="evenodd" clip-rule="evenodd" d="M103.503 0.15966C88.7688 1.35164 71.1291 6.71856 58.3193 13.9069C30.3888 29.5802 10.6295 56.7389 4.16726 88.3368C2.46132 96.6791 2.02532 101.145 2.00058 110.532C1.96661 123.531 3.41024 133.324 7.03468 144.678C18.534 180.703 48.3164 208.971 84.7475 218.441C94.2854 220.92 102.777 221.999 112.745 222C126.85 222.001 140.591 219.294 153.591 213.953C161.16 210.843 166.555 207.973 173.496 203.362C185.97 195.076 196.282 184.789 204.546 172.387C214.215 157.879 219.952 142.581 222.339 124.942C223.158 118.894 223.231 104.705 222.474 98.6106C220.11 79.5541 213.907 62.9925 203.315 47.4521C191.996 30.8467 175.93 17.4896 157.822 9.63055C146.921 4.89959 135.479 1.93676 122.259 0.422037C118.689 0.0131082 107.287 -0.146493 103.503 0.15966ZM104.59 2.06836C87.8468 3.22989 68.9301 9.35566 54.9493 18.1438C37.7557 28.9516 24.5023 43.5366 15.4026 61.6643C7.33966 77.7267 3.30994 96.0366 3.84026 114.202C4.22298 127.317 6.57911 138.689 11.642 151.859C12.7663 154.784 17.8862 164.911 19.6607 167.719C24.2574 174.994 29.0906 181.23 34.3231 186.635C55.9423 208.968 84.8859 220.876 115.463 220.019C123.341 219.798 131.5 218.683 138.933 216.811C145.354 215.193 154.359 211.805 160.866 208.557C170.814 203.591 179.903 197.1 188.254 188.995C198.942 178.62 207.638 165.802 213.178 152.256C219.031 137.944 221.538 123.94 221.11 107.949C220.518 85.8017 213.6 65.2914 200.43 46.6364C192.699 35.6867 180.252 24.1826 168.74 17.3474C150.164 6.31833 126.066 0.578648 104.59 2.06836ZM111.718 8.09543L111.794 12.2418H112.609H113.424L113.499 8.09543L113.574 3.94905H112.609H111.643L111.718 8.09543ZM104.049 6.48799C104.05 7.40944 104.128 8.80589 104.223 9.59085C104.361 10.7399 104.443 11.0183 104.9 11.0183C105.338 11.0183 105.402 10.8076 105.379 9.45491C105.328 6.49153 105.04 4.95642 104.522 4.88164C104.113 4.82237 104.047 5.04696 104.049 6.48799ZM119.985 6.29821C119.89 6.99182 119.812 8.33769 119.812 9.28905C119.812 10.7913 119.878 11.0183 120.316 11.0183C120.747 11.0183 120.845 10.7189 120.995 8.93803C121.284 5.52658 121.242 5.03662 120.665 5.03662C120.268 5.03662 120.12 5.31042 119.985 6.29821ZM96.4357 6.44177C96.4357 6.99943 96.859 9.89537 97.1346 11.2222C97.2145 11.608 97.4605 11.834 97.8 11.834C98.4496 11.834 98.4472 11.9213 97.8891 8.55901C97.5091 6.27075 97.3621 5.85231 96.9378 5.85231C96.604 5.85231 96.4357 6.04997 96.4357 6.44177ZM127.838 6.19217C127.714 6.56929 126.925 11.6733 126.981 11.7402C127 11.7633 127.252 11.8245 127.542 11.8761C128.005 11.9588 128.109 11.7084 128.405 9.79477C128.591 8.59844 128.805 7.22184 128.881 6.73596C128.998 5.99124 128.936 5.85231 128.485 5.85231C128.19 5.85231 127.9 6.00538 127.838 6.19217ZM89.1689 7.4331C88.8346 7.64572 88.8919 7.99456 89.9474 12.1738C90.185 13.1146 90.7686 13.5148 91.1062 12.9689C91.1826 12.8452 91.0627 11.958 90.8401 10.9976C89.9265 7.0568 89.8887 6.97605 89.1689 7.4331ZM135.428 7.50651C135.186 7.89831 134.219 12.0414 134.219 12.6869C134.219 13.0597 134.37 13.2051 134.694 13.1448C135.044 13.0798 135.326 12.4422 135.757 10.7459C136.08 9.47503 136.355 8.23437 136.368 7.98858C136.397 7.4728 135.677 7.10356 135.428 7.50651ZM81.6697 9.3089C81.4003 9.74502 83.2593 14.9545 83.7159 15.0426C83.9565 15.0888 84.2226 15.0143 84.3077 14.877C84.579 14.4374 82.6983 9.25833 82.2343 9.16806C82 9.12238 81.7458 9.18573 81.6697 9.3089ZM142.75 9.43614C142.365 10.0604 141.047 14.6581 141.188 14.8868C141.27 15.0187 141.527 15.0894 141.76 15.0437C142.032 14.9907 142.461 14.0809 142.953 12.5137C143.375 11.1678 143.724 9.92691 143.727 9.75589C143.734 9.32303 142.974 9.07398 142.75 9.43614ZM74.8826 11.7671C74.3222 11.8949 74.3265 11.9147 75.6198 15.1217C76.5622 17.4587 76.7495 17.6941 77.3576 17.3088C77.6386 17.1307 77.5022 16.5407 76.7142 14.5263C75.5935 11.6613 75.5608 11.6124 74.8826 11.7671ZM148.955 14.3332C148.092 16.4233 147.894 17.1574 148.15 17.3197C148.775 17.7159 149.027 17.3798 150.105 14.7166C151.003 12.4979 151.114 12.0273 150.785 11.819C150.569 11.6823 150.326 11.5686 150.245 11.5662C150.165 11.564 149.584 12.809 148.955 14.3332ZM66.7395 14.4371C65.8618 14.9126 65.849 14.8683 68.1062 19.1751C69.5205 21.8739 70.0038 22.2636 71.0177 21.5218C71.5398 21.1401 71.5061 21.0335 69.7926 17.6449C68.8235 15.7283 67.9083 14.1315 67.7588 14.0961C67.6093 14.0611 67.1505 14.2144 66.7395 14.4371ZM155.819 17.5617C154.843 19.5098 154.11 21.2083 154.189 21.3361C154.267 21.4639 154.701 21.6972 155.152 21.8546L155.973 22.1407L157.755 18.5837C158.735 16.6275 159.436 14.9434 159.313 14.8414C159.191 14.7397 158.753 14.513 158.342 14.3381L157.593 14.02L155.819 17.5617ZM108.396 17.1593C99.4866 17.7504 93.605 18.7113 86.6502 20.7121C68.9108 25.8156 53.2124 36.0502 41.0599 50.4348C37.1922 55.0132 32.9249 61.288 30.5326 65.9156L30.0833 66.7846L31.6218 66.7025L33.16 66.6207L33.9869 65.1252C34.4417 64.3028 35.8192 62.095 37.0479 60.2192C45.854 46.7759 58.7638 35.5442 73.467 28.5343C82.0793 24.4281 91.5071 21.6369 101.057 20.3655C105.42 19.7847 115.629 19.5715 120.115 19.968C135.68 21.3429 151.774 27.2352 164.391 36.1778C174.814 43.5659 184.532 54.123 190.724 64.7854C191.912 66.8325 192.055 66.9184 193.719 66.5856L194.574 66.4146L193.311 64.0706C189.259 56.5467 181.178 46.6731 173.87 40.3176C159.087 27.4614 142.168 19.9247 123.074 17.6906C119.433 17.2645 111.266 16.969 108.396 17.1593ZM59.8057 18.9712C59.6105 19.2143 59.9636 20.0275 61.0457 21.8261C61.8777 23.2095 62.6277 24.3392 62.7122 24.337C62.797 24.3346 63.0373 24.2242 63.2469 24.0918C63.5573 23.8949 63.4622 23.5575 62.731 22.2606C60.6798 18.6226 60.3675 18.2713 59.8057 18.9712ZM163.477 21.2567C162.288 23.2538 161.999 23.936 162.269 24.1076C162.464 24.2315 162.711 24.3346 162.818 24.337C162.924 24.3392 163.679 23.2098 164.494 21.8269C165.575 19.9943 165.9 19.2203 165.694 18.972C165.538 18.7847 165.328 18.6313 165.226 18.6313C165.124 18.6313 164.337 19.8127 163.477 21.2567ZM53.4097 23.0542C53.0172 23.3522 53.1553 23.6519 54.6552 25.7566C55.5832 27.0584 56.4881 28.1291 56.6661 28.1357C57.4482 28.1645 57.2497 27.4325 55.9322 25.4252C54.2228 22.8207 53.9971 22.6083 53.4097 23.0542ZM170.287 24.4091C168.428 27.0429 168.136 27.5582 168.325 27.8638C168.653 28.3948 169.146 28.1291 169.963 26.9817C172.317 23.6747 172.512 23.3294 172.201 23.0183C171.699 22.5156 171.542 22.6295 170.287 24.4091ZM47.1525 27.6805C46.7695 27.9717 46.9326 28.2743 48.5045 30.1868C50.3463 32.4278 50.9267 32.8432 51.2039 32.12C51.3053 31.8554 50.7516 30.9514 49.6994 29.6634C47.7453 27.2713 47.7187 27.2504 47.1525 27.6805ZM175.807 29.5253C173.968 31.7888 173.738 32.2965 174.485 32.4403C175.155 32.5694 178.609 28.1686 178.213 27.6911C178.049 27.4934 177.838 27.3363 177.744 27.3412C177.65 27.3464 176.779 28.3293 175.807 29.5253ZM41.1126 32.6146C40.5995 32.9982 40.6709 33.1097 42.8156 35.2655C44.9439 37.4054 45.0777 37.4929 45.5278 37.0424C45.9782 36.5921 45.8942 36.4613 43.8249 34.3914C41.7917 32.3576 41.6131 32.2407 41.1126 32.6146ZM181.436 34.5178C179.631 36.4904 179.41 36.8393 179.771 37.1386C180.124 37.4317 180.493 37.18 182.21 35.4735C184.289 33.4074 184.492 33.051 183.876 32.5395C183.599 32.3098 183.048 32.7565 181.436 34.5178ZM108.532 32.688C105.169 32.9933 99.6315 34.5624 96.6404 36.0581C91.8605 38.4481 86.3159 43.2549 83.5741 47.3858C80.5868 51.8862 78.7525 57.1177 78.0863 63.0363L77.9083 64.6182L79.0214 63.8813C80.0801 63.1804 80.2429 63.1535 82.356 63.3296C84.0742 63.4732 85.3817 63.8237 88.1281 64.8784C90.0811 65.628 91.8624 66.3017 92.0866 66.3754C92.4163 66.4836 92.5104 66.1655 92.5775 64.7136C92.9589 56.4831 99.1167 49.1224 107.51 46.8635C110.478 46.0649 114.574 46.0725 117.502 46.8822C121.795 48.0693 125.746 50.7271 128.519 54.2932L130.139 56.3762L131.703 55.9997C132.563 55.7927 135.744 55.1092 138.772 54.4806C142.44 53.719 144.276 53.2228 144.276 52.9928C144.276 52.4185 142.235 48.6607 140.938 46.845C139.391 44.681 135.462 40.798 132.995 38.997C126.415 34.1916 117.447 31.8788 108.532 32.688ZM35.5893 38.5473C35.4172 38.7194 35.2764 38.9391 35.2764 39.0354C35.2764 39.4696 39.6617 42.8742 40.036 42.7307C40.7218 42.4672 40.5043 42.1053 38.7065 40.5166C36.2612 38.3559 35.9666 38.1699 35.5893 38.5473ZM186.952 40.0261C185.83 41.024 184.913 42.0308 184.913 42.2636C184.913 43.1605 185.804 42.7573 187.721 40.9933C189.226 39.608 189.668 39.043 189.526 38.6835C189.424 38.4217 189.261 38.2088 189.165 38.2099C189.069 38.211 188.073 39.0283 186.952 40.0261ZM30.4079 44.84C30.1532 45.1467 30.5479 45.5546 32.481 46.9823C34.203 48.2539 34.9633 48.6697 35.2085 48.4734C35.3955 48.3238 35.5482 48.103 35.5482 47.9829C35.5482 47.7297 31.275 44.4613 30.9439 44.4613C30.8218 44.4613 30.5807 44.6318 30.4079 44.84ZM193.067 45.0665C191.62 46.1109 189.67 47.7697 189.674 47.9532C189.676 48.0514 189.787 48.304 189.92 48.5144C190.111 48.8154 190.661 48.5068 192.511 47.0622C194.423 45.5684 194.801 45.1562 194.542 44.8444C194.132 44.3503 194.042 44.3639 193.067 45.0665ZM26.0275 50.8592C25.619 51.3516 25.7266 51.4514 28.7033 53.3392C30.4467 54.445 30.7417 54.5518 31.0893 54.2041C31.437 53.8563 31.1855 53.5994 29.055 52.1252C27.7182 51.1999 26.5679 50.443 26.4986 50.443C26.4295 50.443 26.2175 50.6303 26.0275 50.8592ZM197.006 51.4307C193.972 53.4422 193.717 53.6853 194.028 54.2669C194.294 54.7647 194.466 54.6913 196.756 53.104C198.997 51.5506 199.584 50.8027 198.773 50.5327C198.622 50.4824 197.827 50.8867 197.006 51.4307ZM159.498 53.5855C146.529 54.8911 131.712 57.882 114.648 62.6385C109.075 64.1921 100.708 66.7419 100.513 66.9467C100.088 67.392 107.407 66.4866 116.414 64.9795C136.041 61.6958 143.652 60.7469 156.78 59.9473C162.211 59.6164 165.874 59.7599 168.876 60.4217C171.16 60.9256 171.883 61.2749 172.94 62.3862C173.787 63.2772 173.98 64.4773 173.524 66.0089L173.302 66.7566H176.404C179.35 66.7566 179.567 66.7177 180.714 65.982C182.203 65.0282 182.734 64.4406 183.272 63.1529C183.791 61.909 183.813 59.4136 183.314 58.2512C182.457 56.2525 179.706 54.5776 176.034 53.8193C173.127 53.2187 164.371 53.0947 159.498 53.5855ZM21.4093 57.1718C21.1046 57.5592 20.8972 58.0016 20.9483 58.155C21.0899 58.5799 26.6353 61.5863 27.2819 61.5887C27.6204 61.5898 27.9713 61.3244 28.1501 60.9321C28.4983 60.1672 28.5092 60.1762 24.4746 57.8904L21.963 56.4673L21.4093 57.1718ZM199.927 58.2305C196.651 60.0925 196.359 60.4302 197.126 61.4707C197.505 61.9854 197.558 61.9753 199.233 61.0756C202.357 59.397 204.076 58.2928 204.07 57.9684C204.067 57.7923 203.851 57.3711 203.59 57.0326L203.117 56.4173L199.927 58.2305ZM17.696 65.0168C17.4959 65.5382 17.6487 65.641 20.5501 66.9371C22.4379 67.7806 22.8535 67.8831 23.0603 67.5562C23.1965 67.3406 23.3098 67.0859 23.3123 66.9902C23.3161 66.8227 18.413 64.5814 18.0431 64.5814C17.9439 64.5814 17.7878 64.7772 17.696 65.0168ZM206.251 64.7699C205.952 64.8745 202.652 66.4263 201.691 66.9129C201.523 66.998 201.977 67.8442 202.191 67.8442C202.318 67.8442 203.533 67.3349 204.891 66.7126C206.586 65.9363 207.336 65.4526 207.281 65.1717C207.19 64.7022 206.837 64.564 206.251 64.7699ZM78.8218 66.811C78.03 67.603 78.6911 69.2036 79.8099 69.2036C80.7107 69.2036 81.2139 68.761 81.2139 67.9679C81.2139 66.8224 79.5938 66.0388 78.8218 66.811ZM83.1628 66.8368C82.6037 67.5106 82.486 68.7931 82.9481 69.1767C83.9948 70.0457 85.8505 68.2539 85.1174 67.0821C84.7475 66.4912 83.5719 66.3436 83.1628 66.8368ZM29.6258 71.1406C28.1034 71.8943 27.569 72.9289 27.7255 74.8177C27.8786 76.6658 28.3366 77.1691 31.0632 78.4858C34.2027 80.0019 34.7861 80.8665 33.5218 82.1309C32.7129 82.9403 31.6463 82.9822 29.6253 82.2839C28.0403 81.7361 27.9501 81.7839 27.5722 83.3688C27.3412 84.3389 28.2692 84.7457 31.088 84.9093C34.7553 85.1225 36.5942 83.9403 36.828 81.2195C37.0152 79.0386 36.402 78.2632 33.2378 76.6807C30.7283 75.4257 30.5131 75.2555 30.4364 74.4637C30.2834 72.8865 32.0581 72.2981 34.4368 73.1377C35.6801 73.5762 35.5311 73.6951 36.2329 71.7037C36.6314 70.5732 31.6321 70.1474 29.6258 71.1406ZM42.7455 71.0718C41.4763 71.6485 40.0729 72.9726 39.4358 74.1945C38.7829 75.4469 38.6481 78.8393 39.1789 80.6659C39.6761 82.3764 41.0178 83.9324 42.5636 84.5918C43.8692 85.1489 47.5344 84.9972 48.8011 84.3337L49.6858 83.8704L49.146 82.8117L48.6062 81.7532L47.2805 82.3133C44.1249 83.6469 41.6973 81.6722 41.6938 77.7683C41.6897 73.5722 44.1807 71.9174 48.1865 73.455C48.4115 73.5414 48.7274 73.2717 48.9848 72.7739C49.5717 71.639 49.542 71.5419 48.4504 71.0213C47.1359 70.3943 44.1788 70.4204 42.7455 71.0718ZM77.2045 70.7823L76.3211 70.8695V76.3857C76.3211 81.6588 76.348 81.9419 76.9327 82.8011C77.9844 84.3468 78.8561 84.8096 80.9388 84.927C83.0978 85.0491 84.9046 84.3805 85.7008 83.1651C86.4271 82.0564 86.7022 79.1982 86.5016 74.8454L86.317 70.835H85.1245H83.932V75.5526C83.932 78.3714 83.8078 80.6265 83.6235 81.1556C83.0799 82.7149 80.7863 83.1616 79.6672 81.9261C79.235 81.4492 79.1649 80.7453 79.0915 76.1367C78.9988 70.347 79.0866 70.5963 77.2045 70.7823ZM91.1353 71.1836C89.7177 71.9805 89.0194 73.3114 89.213 74.8476C89.4456 76.6965 90.0529 77.3311 92.8175 78.6147C94.7909 79.5307 95.368 79.9266 95.5004 80.4549C95.7412 81.4141 95.4444 82.1235 94.651 82.4851C93.7279 82.9057 93.0037 82.8799 91.2679 82.3644C89.8925 81.9557 89.7862 81.9587 89.4519 82.4163C88.4578 83.7761 89.3967 84.6486 92.126 84.9014C95.5569 85.2198 97.7459 84.1837 98.3453 81.9579C98.9753 79.6172 97.6684 77.7419 94.5545 76.5179C93.7203 76.19 92.7327 75.6315 92.3598 75.2767C91.7189 74.6674 91.7044 74.5912 92.0964 73.8925C92.7181 72.7845 93.7178 72.5433 95.626 73.0406L97.2311 73.4588L97.513 72.6502C97.9563 71.3785 97.8631 71.1515 96.7755 70.8494C94.9598 70.3451 92.3516 70.4995 91.1353 71.1836ZM102.784 70.9973C101.173 71.7921 100.649 72.6118 100.649 74.3356C100.649 76.5413 101.115 77.1003 104.17 78.5573C106.181 79.5166 106.787 79.935 106.918 80.4576C107.172 81.4707 106.839 82.158 105.906 82.5444C105.096 82.8799 103.875 82.7567 101.431 82.0939C100.981 81.9715 100.818 82.0849 100.685 82.6146C100.592 82.987 100.443 83.48 100.355 83.7103C100.1 84.3745 102.84 85.0526 105.28 84.9295C107.016 84.8416 107.401 84.7225 108.308 83.9911C109.528 83.0074 110.13 81.4957 109.883 80.0329C109.607 78.3999 108.626 77.6313 104.809 76.0562C104.405 75.8901 103.868 75.4374 103.615 75.0507C102.574 73.4612 104.348 72.3389 106.89 72.9792C107.551 73.1456 108.203 73.2821 108.337 73.2821C108.617 73.2821 109.211 72.0816 109.211 71.5147C109.211 70.5993 104.379 70.2102 102.784 70.9973ZM116.211 70.7665L112.473 70.8502V77.7759V84.7016H116.55H120.628V83.614V82.5265L118.249 82.5224C116.941 82.5199 115.711 82.4169 115.516 82.2932C115.273 82.139 115.188 81.5629 115.244 80.462L115.327 78.8559H117.502H119.676L119.76 77.7003L119.843 76.5448H117.517H115.191V74.7775V73.0102H117.909C120.548 73.0102 120.628 72.9922 120.624 72.3984C120.619 71.5656 120.331 70.5498 120.12 70.6227C120.026 70.6556 118.266 70.7203 116.211 70.7665ZM157.663 70.7665L153.79 70.85V77.7757V84.7016H157.867H161.944V83.6238V82.546L159.294 82.4683L156.644 82.3905L156.563 80.7023L156.482 79.0141L158.737 78.935L160.993 78.8559L161.076 77.7003L161.16 76.5448H158.834H156.508V74.7775V73.0102H159.09H161.672V71.7866C161.672 71.1137 161.642 70.59 161.604 70.6229C161.567 70.6558 159.793 70.7205 157.663 70.7665ZM181.472 71.1129C179.975 71.9036 179.34 72.865 179.342 74.3384C179.343 76.3504 180.066 77.2283 182.736 78.4625C185.428 79.7064 186.102 80.4628 185.546 81.6186C185.004 82.747 183.809 82.9849 181.637 82.397C180.66 82.1322 179.794 81.9824 179.713 82.0637C179.631 82.145 179.469 82.6368 179.352 83.157C179.16 84.008 179.21 84.1361 179.851 84.44C180.243 84.6257 181.514 84.8378 182.675 84.911C186.338 85.1418 188.164 83.9849 188.49 81.2252C188.603 80.2746 188.519 79.6582 188.192 79.025C187.686 78.0467 185.968 76.8455 184.275 76.2865C182.765 75.7881 181.94 74.8797 182.169 73.9672C182.468 72.7774 183.973 72.5107 186.712 73.1624C187.333 73.3103 187.464 73.219 187.732 72.4509C188.159 71.2246 188.161 71.2298 186.988 70.878C185.345 70.3856 182.629 70.5014 181.472 71.1129ZM52.401 77.7683V84.7016H53.7601H55.1192V81.8467V78.9918H57.5656H60.012V81.8467V84.7016H61.3711H62.7302V77.7683V70.835H61.3711H60.012V73.6899V76.5448H57.5656H55.1192V73.6899V70.835H53.7601H52.401V77.7683ZM66.2638 77.7683V84.7016H70.2052H74.1466V83.614V82.5265H71.5643H68.982V76.6807V70.835H67.6229H66.2638V77.7683ZM123.618 77.7683V84.7016H127.559H131.5V83.614V82.5265H128.918H126.336V76.6807V70.835H124.977H123.618V77.7683ZM133.947 77.7898V84.7448L137.435 84.6551C140.765 84.5697 140.984 84.5284 142.245 83.7475C144.271 82.4936 144.956 80.947 144.953 77.6381C144.95 74.7777 144.682 74.0094 143.169 72.53C141.867 71.2564 140.305 70.835 136.888 70.835H133.947V77.7898ZM147.81 77.7683V84.7016H149.169H150.528V77.7683V70.835H149.169H147.81V77.7683ZM165.206 77.7683V84.7016H166.429H167.652L167.684 80.2833C167.702 77.8534 167.699 75.7642 167.678 75.641C167.53 74.7903 168.576 76.4336 172.318 82.9343L173.257 84.5657L174.804 84.6472L176.351 84.7288V77.7819V70.835H175.134H173.917L173.842 75.5826L173.768 80.3298L171.063 75.5826L168.357 70.835H166.782H165.206V77.7683ZM189.942 71.9226V73.0102H191.703H193.464L193.538 78.7879L193.611 84.5657L194.902 84.6486L196.193 84.7315V80.1322C196.193 77.6027 196.271 74.9654 196.366 74.2718L196.539 73.0102H198.253C199.196 73.0102 200.044 72.8848 200.139 72.7317C200.233 72.5784 200.231 72.089 200.133 71.6442L199.956 70.835H194.949H189.942V71.9226ZM14.5048 72.3693C14.4108 72.6151 14.3852 72.8677 14.4485 72.931C14.613 73.0955 19.5384 74.9134 19.8197 74.9134C19.9488 74.9134 20.0545 74.6897 20.0545 74.4164C20.0545 74.0458 19.4329 73.6649 17.6142 72.921C14.8253 71.7798 14.7369 71.7643 14.5048 72.3693ZM207.134 72.9408C205.751 73.4922 204.622 74.0088 204.624 74.0888C204.626 74.1684 204.737 74.4053 204.869 74.6149C205.069 74.9295 205.506 74.8392 207.38 74.0958C210.462 72.8731 210.603 72.791 210.425 72.3263C210.209 71.7635 209.976 71.8068 207.134 72.9408ZM136.665 77.7683V82.5265H137.897C141.077 82.5265 142.685 80.4478 142.244 76.9094C141.937 74.4509 140.132 73.0102 137.36 73.0102H136.665V77.7683ZM211.008 79.8358C210.111 80.1191 208.918 80.478 208.357 80.6335C207.622 80.8374 207.338 81.0645 207.338 81.4495C207.338 82.1192 207.645 82.1164 209.807 81.4264C212.499 80.568 213.046 80.3143 213.046 79.9266C213.046 79.3178 212.697 79.3023 211.008 79.8358ZM11.9413 79.9568C12.0122 80.3257 12.6839 80.6585 14.4831 81.2162C17.3956 82.1192 17.6082 82.136 17.6082 81.4652C17.6082 81.0596 17.1839 80.8192 15.6399 80.3499C14.5575 80.0212 13.2607 79.6854 12.7581 79.6039C11.9769 79.4769 11.8586 79.528 11.9413 79.9568ZM9.88388 87.3235C9.65256 87.9271 9.6705 87.9374 11.9443 88.51C14.9316 89.2621 15.5695 89.2912 15.5695 88.6751C15.5695 88.2531 15.1129 88.0508 12.9872 87.5307C9.85725 86.765 10.0924 86.7808 9.88388 87.3235ZM211.698 87.553C209.383 88.1742 209.075 88.3695 209.458 88.9733C209.668 89.3029 209.837 89.2741 213.93 88.2088C214.671 88.0157 214.949 87.7979 214.949 87.4099C214.949 86.7484 214.648 86.7615 211.698 87.553ZM21.6855 95.303V99.112H26.576H31.4666L31.5367 115.494L31.6069 131.875H36.0919H40.5769L40.647 115.5L40.7172 99.1245L45.5398 99.0503L50.3624 98.9761V95.3055V91.6349L36.0239 91.5645L21.6855 91.4941V95.303ZM55.1192 106.144C55.1192 114.876 55.2301 121.374 55.394 122.239C56.34 127.228 59.8404 130.789 65.1765 132.189C67.5732 132.818 73.3575 132.826 75.7005 132.204C79.7852 131.119 83.0832 128.641 84.5355 125.564C85.9693 122.526 86.0868 121.023 86.0971 105.569L86.1066 91.499H81.6349H77.1632L77.0683 105.841C76.9631 121.69 76.9759 121.568 75.2295 123.315C74.0745 124.47 72.6363 124.944 70.3096 124.936C67.5117 124.926 65.762 123.864 64.7139 121.539C64.2667 120.548 64.2181 119.221 64.142 105.977L64.0588 91.499H59.589H55.1192V106.144ZM92.9684 111.661L93.038 131.875L97.4551 131.95L101.872 132.025V124.813V117.601H103.853H105.834L106.802 119.3C107.335 120.235 109.094 123.477 110.712 126.505L113.652 132.011H118.635C121.375 132.011 123.618 131.951 123.618 131.877C123.618 131.737 118.476 122.75 116.044 118.638C115.276 117.34 114.648 116.175 114.648 116.051C114.648 115.926 115.297 115.436 116.09 114.961C117.989 113.825 119.958 111.688 120.8 109.849C121.743 107.789 122.192 104.053 121.771 101.785C121.062 97.9733 118.717 94.9199 115.312 93.3759C111.931 91.8421 110.911 91.7086 101.531 91.5726L92.8985 91.4476L92.9684 111.661ZM139.675 97.1408C138.598 100.244 136.735 105.597 135.536 109.036C134.337 112.476 132.457 117.92 131.358 121.135C130.259 124.351 128.985 128.061 128.528 129.381C128.069 130.701 127.695 131.833 127.695 131.896C127.695 131.96 129.698 132.011 132.147 132.011C135.379 132.011 136.674 131.918 136.875 131.671C137.187 131.288 139.383 124.532 139.383 123.956C139.383 123.649 140.681 123.582 146.714 123.582H154.045L155.155 127.185C155.766 129.167 156.379 131.063 156.517 131.399C156.763 132 156.852 132.011 161.395 132.011C165.187 132.011 166.021 131.942 166.021 131.629C166.021 131.419 164.848 127.84 163.414 123.676C161.981 119.512 160.157 114.209 159.362 111.891C156.702 104.131 152.439 92.0052 152.282 91.7507C152.195 91.6104 149.804 91.499 146.88 91.499H141.634L139.675 97.1408ZM170.449 111.681L170.506 131.875L174.509 131.951C178.475 132.025 178.513 132.02 178.665 131.407C178.75 131.066 178.784 125.078 178.74 118.099C178.697 111.12 178.685 105.434 178.714 105.463C178.777 105.527 179.35 106.554 187.312 120.864L193.438 131.875H198.01H202.581L202.651 111.687L202.721 91.499H198.493H194.266L194.346 104.414C194.39 111.517 194.357 117.329 194.273 117.329C194.189 117.329 193.902 116.872 193.636 116.314C193.218 115.438 188.46 106.851 181.844 95.0336L179.941 91.6349L175.166 91.5607L170.391 91.4865L170.449 111.681ZM8.46472 94.8971C8.20486 95.5744 8.57181 95.7397 11.1541 96.1092C13.6567 96.4676 14.3463 96.3898 14.3463 95.75C14.3463 95.4675 13.6978 95.2742 11.9679 95.0407C10.6599 94.8639 9.37477 94.6592 9.11246 94.5858C8.82922 94.5067 8.5661 94.6331 8.46472 94.8971ZM215.628 94.6276C215.479 94.6796 214.286 94.8661 212.978 95.042C211.333 95.2631 210.6 95.4738 210.6 95.7253C210.6 96.3773 211.123 96.4409 213.598 96.0904C216.343 95.7019 216.73 95.5458 216.492 94.9251C216.328 94.4963 216.165 94.4403 215.628 94.6276ZM102.076 98.7178C101.964 98.8349 101.872 101.554 101.872 104.759V110.588L105.202 110.483C107.752 110.402 108.754 110.261 109.483 109.879C111.781 108.675 112.568 107.356 112.592 104.666C112.607 103.001 112.507 102.59 111.851 101.597C111.028 100.353 109.889 99.5329 108.396 99.1096C107.117 98.7471 102.332 98.4502 102.076 98.7178ZM145.927 103.19C145.441 104.761 144.315 108.355 143.426 111.179C142.537 114.002 141.858 116.36 141.917 116.419C141.975 116.478 144.231 116.492 146.929 116.452L151.835 116.377L149.925 110.26C148.874 106.895 147.744 103.286 147.413 102.239L146.811 100.336L145.927 103.19ZM7.55086 102.747C7.55086 103.41 7.63757 103.462 8.73409 103.462C9.3851 103.462 10.6694 103.541 11.5882 103.637C13.2574 103.811 13.2591 103.811 13.2591 103.093C13.2591 102.388 13.2259 102.375 11.4243 102.372C10.415 102.37 9.13095 102.293 8.57018 102.2C7.60794 102.041 7.55086 102.072 7.55086 102.747ZM213.794 102.305C211.748 102.395 211.687 102.417 211.687 103.082V103.767L214.337 103.579C215.795 103.476 217.079 103.339 217.191 103.275C217.304 103.211 217.395 102.921 217.395 102.631C217.395 102.223 217.225 102.115 216.648 102.157C216.236 102.188 214.952 102.254 213.794 102.305ZM7.00722 110.803V111.891H11.0929C15.5179 111.891 15.6826 111.833 15.3219 110.395L15.1515 109.716H11.0793H7.00722V110.803ZM209.624 110.395C209.273 111.796 209.44 111.857 213.848 111.945L217.94 112.027L217.939 110.871L217.939 109.716H213.867H209.795L209.624 110.395ZM28.0289 111.149C23.4909 115.902 19.1132 123.437 17.7242 128.884C17.1135 131.28 17.0422 132.04 17.1254 135.274C17.2138 138.724 17.2741 139.072 18.1279 141.073C20.823 147.39 27.2202 150.077 38.4023 149.589C47.3205 149.2 59.3634 146.35 71.972 141.645C76.2113 140.063 85.2911 136.031 85.2911 135.731C85.2911 135.673 83.3036 136.22 80.8741 136.947C51.3706 145.774 31.8341 146.559 23.9288 139.237C22.6947 138.093 21.9524 137.101 21.213 135.605C20.2617 133.679 20.1894 133.355 20.0953 130.606C20.0222 128.475 20.123 127.124 20.4623 125.692C21.0124 123.37 23.0234 118.977 24.7793 116.262C26.1137 114.199 26.8068 113.572 25.629 115.494C24.1375 117.927 22.7477 120.937 22.0559 123.234C21.4517 125.239 21.3329 126.167 21.3155 129.02C21.2913 133.014 21.6246 134.203 23.5156 136.865C25.4333 139.565 28.2602 141.176 32.8743 142.198C35.636 142.809 36.8739 142.635 34.3647 141.988C28.9737 140.597 25.719 137.764 24.3564 133.277C23.8687 131.671 23.8089 130.944 23.9312 128.107C24.1441 123.174 25.159 119.591 28.395 112.346C28.9178 111.176 29.2964 110.169 29.2361 110.109C29.176 110.048 28.6326 110.517 28.0289 111.149ZM9.31768 118.394C7.88357 118.533 7.67617 118.627 7.59897 119.172C7.51199 119.785 7.53482 119.79 9.77353 119.631C12.9163 119.408 13.2591 119.314 13.2591 118.683C13.2591 118.095 12.769 118.059 9.31768 118.394ZM211.885 118.67C211.694 119.401 211.749 119.419 214.881 119.628L217.395 119.796V119.106C217.395 118.487 217.288 118.416 216.348 118.416C215.772 118.416 214.567 118.34 213.67 118.246C212.152 118.087 212.03 118.117 211.885 118.67ZM12.7154 125.639C12.4912 125.688 11.421 125.868 10.337 126.039C8.68734 126.3 8.36632 126.435 8.36632 126.87C8.36632 127.5 8.63053 127.509 11.6281 126.981C12.8989 126.757 13.9693 126.574 14.0066 126.574C14.0438 126.574 14.0745 126.329 14.0745 126.03C14.0745 125.504 13.7513 125.411 12.7154 125.639ZM210.872 126.107C210.872 126.685 211.046 126.751 213.386 127.062C216.596 127.488 216.58 127.49 216.58 126.845C216.58 126.546 216.488 126.301 216.376 126.3C216.264 126.3 215.071 126.118 213.726 125.897C210.654 125.392 210.872 125.376 210.872 126.107ZM12.2202 133.356C10.0407 133.891 9.63055 134.137 9.97766 134.699C10.1704 135.01 10.5411 134.996 12.277 134.61C14.1615 134.19 14.3463 134.09 14.3463 133.488C14.3463 133.124 14.3156 132.836 14.2784 132.847C14.2411 132.858 13.3148 133.087 12.2202 133.356ZM209.416 133.231C209.204 133.783 209.799 134.047 212.471 134.59C214.354 134.972 214.789 134.99 214.974 134.69C215.319 134.131 214.898 133.893 212.593 133.341C210.015 132.724 209.616 132.71 209.416 133.231ZM198.1 136.216C197.96 136.584 197.641 137.594 197.393 138.459C196.087 142.995 192.076 151.929 188.984 157.184C182.305 168.535 172.21 179.161 161.129 186.505C140.529 200.156 114.769 204.685 91.3337 198.776C78.5375 195.55 67.4584 190.076 56.7523 181.69C53.182 178.894 45.2669 171.05 42.5633 167.629C39.2974 163.497 35.2843 157.411 33.0616 153.221C32.4767 152.118 32.2875 151.976 31.1135 151.762C30.3983 151.631 29.7441 151.593 29.6595 151.678C29.4761 151.861 31.7966 156.227 33.8211 159.508C39.2181 168.254 47.6048 177.685 55.2573 183.613C69.8428 194.914 84.7684 201.074 102.959 203.303C106.621 203.752 117.984 203.749 121.715 203.298C138.83 201.231 154.674 194.846 167.924 184.676C173.496 180.399 177.395 176.68 182.232 171.028C190.186 161.736 196.162 150.947 199.968 139.009C201.08 135.522 201.082 135.546 199.584 135.546C198.527 135.546 198.319 135.64 198.1 136.216ZM207.338 140.424C207.338 141.137 212.431 142.893 212.802 142.308C213.21 141.663 212.929 141.441 210.946 140.835C207.813 139.878 207.338 139.824 207.338 140.424ZM13.5524 140.936C12.0375 141.411 11.7488 141.683 12.1264 142.278C12.2938 142.543 12.5578 142.553 13.277 142.323C15.3246 141.668 15.7054 141.453 15.7054 140.951C15.7054 140.337 15.4643 140.336 13.5524 140.936ZM79.1752 142.399C76.8006 143.23 75.5057 145.24 75.5057 148.096C75.5057 151.268 77.4375 153.663 80.5109 154.302C83.8921 155.004 86.317 153.478 87.8734 149.67L88.1452 149.005L95.9524 148.933L103.759 148.86L103.835 152.603L103.911 156.346H105.406H106.901L106.98 154.103L107.059 151.859H108.135H109.211L109.215 153.831C109.218 154.915 109.321 155.962 109.446 156.158C109.595 156.394 110.122 156.486 111.004 156.43L112.337 156.346L112.404 153.219C112.499 148.799 112.471 148.869 114.125 148.869H115.494L115.411 147.713L115.327 146.558L101.569 146.487L87.8112 146.417L86.843 144.958C85.5872 143.066 83.7135 142.061 81.5003 142.093C80.6699 142.104 79.6237 142.243 79.1752 142.399ZM124.818 142.983C124.207 143.183 123.315 143.579 122.835 143.863C122.056 144.323 121.971 144.494 122.042 145.452C122.114 146.415 122.216 146.55 123.024 146.758C123.813 146.961 124.043 146.887 124.868 146.162C126.667 144.582 129.326 145.394 129.326 147.524C129.326 149.093 128.485 150.217 124.937 153.391C121.3 156.643 121.154 156.871 121.614 158.589C121.778 159.198 121.797 159.201 127.47 159.201H133.161L133.078 157.909L132.995 156.618L129.487 156.482L125.978 156.346L128.399 154.198C129.731 153.016 131.241 151.455 131.755 150.729C133.614 148.101 133.037 144.894 130.45 143.466C129.023 142.679 126.424 142.456 124.818 142.983ZM155.785 142.955C155.526 143.371 155.011 144.904 152.162 153.725C150.742 158.121 150.03 160.714 150.196 160.88C150.339 161.024 150.926 161.102 151.5 161.054L152.544 160.968L153.322 158.521C153.75 157.175 155.009 153.237 156.119 149.769C157.23 146.301 158.139 143.273 158.139 143.04C158.139 142.51 156.107 142.437 155.785 142.955ZM141.782 143.352C141.55 143.62 139.958 145.924 138.246 148.472C135.146 153.086 135.133 153.112 135.287 154.41L135.442 155.714L139.111 155.758L142.781 155.802L142.862 157.501L142.943 159.201H144.561H146.179V157.433V155.666H147.266C148.342 155.666 148.353 155.655 148.349 154.646C148.344 153.33 148.124 153.017 147.129 152.904L146.315 152.811L146.179 147.917L146.043 143.023L144.124 142.944C142.554 142.88 142.128 142.954 141.782 143.352ZM160.227 143.928C160.141 144.358 160.14 144.972 160.224 145.294C160.369 145.848 160.533 145.878 163.5 145.878H166.624L166.445 146.59C166.347 146.982 165.22 149.934 163.941 153.15C162.095 157.789 161.691 159.045 161.983 159.231C162.44 159.52 164.411 159.538 164.854 159.256C165.034 159.142 165.625 157.89 166.169 156.473C166.712 155.057 167.951 151.883 168.921 149.418C170.401 145.659 170.648 144.806 170.45 144.116L170.215 143.295L165.299 143.221L160.384 143.147L160.227 143.928ZM79.2785 144.909C78.0526 145.742 77.5756 146.869 77.7373 148.551C78.073 152.045 82.0212 153.626 84.4205 151.226C85.1772 150.469 85.3898 150.017 85.486 148.963C85.8084 145.424 82.0913 142.997 79.2785 144.909ZM142.268 147.033C142.054 147.37 141.198 148.777 140.365 150.16L138.851 152.675H140.884H142.917V149.548C142.917 147.829 142.858 146.422 142.787 146.422C142.716 146.422 142.482 146.697 142.268 147.033ZM16.9971 148.023C15.2885 148.728 14.6192 149.139 14.6187 149.48C14.6184 149.742 14.8131 149.956 15.0512 149.956C15.632 149.956 20.3247 147.969 20.3258 147.723C20.3261 147.616 20.1124 147.419 19.8507 147.285C19.5125 147.112 18.6878 147.325 16.9971 148.023ZM204.809 147.138C204.303 147.644 204.81 148.078 206.957 148.977C209.579 150.075 210.328 150.187 210.327 149.48C210.326 149.137 209.704 148.762 208.084 148.131C204.928 146.901 205.019 146.929 204.809 147.138ZM73.3398 151.797C73.3316 152.124 72.5056 154.01 67.8944 164.231C66.8148 166.623 65.9145 168.826 65.8939 169.125C65.8563 169.666 66.0461 169.669 112.541 169.737C150.517 169.793 159.226 169.741 159.226 169.455C159.226 169.262 158.495 167.457 157.602 165.444C156.709 163.431 155.975 161.62 155.971 161.421C155.962 160.935 155.414 161.144 154.981 161.799C154.679 162.255 154.778 162.652 155.705 164.704C156.296 166.012 156.78 167.235 156.78 167.423C156.78 167.697 148.038 167.753 113.085 167.702C89.0526 167.667 69.1236 167.637 68.7982 167.634L68.207 167.629L68.8311 166.066C69.8002 163.639 73.5295 155.106 74.1218 153.96L74.6524 152.933L74.0003 152.193C73.6418 151.785 73.3444 151.607 73.3398 151.797ZM19.9866 155.271C17.5995 156.492 17.4473 156.627 17.8161 157.199C18.1352 157.694 23.1805 155.326 23.1805 154.681C23.1805 153.861 22.4993 153.987 19.9866 155.271ZM201.811 154.216C201.28 154.747 201.865 155.263 204.257 156.373C206.279 157.312 206.935 157.512 207.107 157.241C207.229 157.048 207.331 156.82 207.334 156.734C207.338 156.584 202.43 154.035 202.137 154.035C202.057 154.035 201.911 154.116 201.811 154.216ZM26.4423 160.609C25.4368 161.133 21.4112 163.504 21.1731 163.714C20.9428 163.916 21.776 165.454 22.1155 165.454C22.4186 165.454 25.3865 163.765 27.8693 162.179C28.6052 161.709 28.6364 161.347 28.0053 160.604L27.5296 160.043L26.4423 160.609ZM196.954 160.979C196.688 161.563 196.721 161.749 197.164 162.178C197.826 162.817 202.442 165.454 202.9 165.454C203.274 165.454 203.804 164.62 203.804 164.032C203.804 163.668 198.186 160.288 197.58 160.288C197.409 160.288 197.127 160.599 196.954 160.979ZM28.3915 169.002C26.0161 170.66 25.6921 171.049 26.4469 171.339C26.7747 171.465 30.0708 169.492 31.2761 168.448C31.5155 168.241 31.2475 167.357 30.9447 167.357C30.8368 167.357 29.6881 168.098 28.3915 169.002ZM193.665 167.53C193.183 168.012 193.642 168.537 195.801 169.974C197.882 171.359 198.17 171.479 198.54 171.108C198.91 170.738 198.722 170.533 196.75 169.151C194.323 167.449 193.945 167.251 193.665 167.53ZM32.7289 175.019C30.5593 176.738 30.3625 176.969 30.74 177.347C31.1176 177.724 31.3899 177.586 33.4895 175.945C34.7714 174.944 35.8201 174.025 35.8201 173.901C35.8201 173.778 35.6665 173.55 35.4787 173.394C35.2261 173.185 34.5088 173.609 32.7289 175.019ZM189.313 173.711C189.193 174.023 190.805 175.513 193.437 177.523C193.707 177.73 193.904 177.671 194.173 177.302C194.508 176.845 194.341 176.646 192.309 175.073C189.997 173.283 189.555 173.082 189.313 173.711ZM37.7391 180.905C36.2881 182.244 35.523 183.138 35.6507 183.345C36.0158 183.936 36.476 183.677 38.6742 181.645C40.6228 179.843 40.806 179.59 40.4388 179.213C40.0708 178.835 39.7962 179.007 37.7391 180.905ZM184.549 179.114C184.375 179.288 184.233 179.51 184.233 179.608C184.233 179.707 185.22 180.679 186.427 181.768C188.442 183.589 188.656 183.714 189.058 183.312C189.459 182.911 189.418 182.802 188.547 181.982C186.124 179.698 184.866 178.796 184.549 179.114ZM43.2116 186.421C41.6468 188.144 41.2904 188.686 41.5326 188.978C41.9865 189.526 42.3209 189.297 44.3533 187.053C45.8782 185.369 46.1429 184.943 45.8698 184.613C45.6879 184.394 45.4623 184.219 45.3685 184.225C45.2745 184.23 44.3041 185.219 43.2116 186.421ZM179.07 184.621C178.788 184.961 179.076 185.38 180.841 187.194C182.64 189.043 183.024 189.32 183.466 189.083C183.937 188.831 183.794 188.596 181.901 186.51C180.755 185.248 179.725 184.215 179.612 184.215C179.499 184.215 179.255 184.398 179.07 184.621ZM48.9098 191.191C47.1788 193.347 47.0244 193.635 47.4015 194.002C47.863 194.452 48.1133 194.219 50.5565 191.066C51.5614 189.769 51.6318 189.582 51.2558 189.206C50.8799 188.831 50.6445 189.03 48.9098 191.191ZM173.676 189.192C173.451 189.464 173.832 190.109 175.281 191.909C176.978 194.018 177.236 194.236 177.697 193.948C178.192 193.639 178.176 193.576 177.358 192.522C175.903 190.651 174.32 188.837 174.141 188.837C174.047 188.837 173.838 188.997 173.676 189.192ZM54.8887 195.639C53.9545 196.988 53.2646 198.211 53.3554 198.358C53.746 198.99 54.3649 198.483 55.9078 196.265C57.1598 194.465 57.4792 193.819 57.2527 193.546C57.0891 193.349 56.8725 193.187 56.7713 193.187C56.6699 193.187 55.823 194.291 54.8887 195.639ZM167.962 193.43C167.672 193.614 167.893 194.104 168.972 195.67C170.947 198.536 171.109 198.713 171.581 198.532C171.812 198.443 172.001 198.265 172.001 198.137C172.001 197.805 168.752 193.187 168.522 193.191C168.418 193.194 168.165 193.301 167.962 193.43ZM61.028 199.635C59.6439 201.964 59.5151 202.3 59.9206 202.527C60.4925 202.848 61.1066 202.126 62.5736 199.409C63.4127 197.855 63.5432 197.431 63.2412 197.24C63.0349 197.109 62.8049 197.002 62.7302 197.001C62.6554 197 61.8894 198.185 61.028 199.635ZM161.987 197.234C161.558 197.506 161.847 198.16 163.592 200.86C164.932 202.933 164.839 202.849 165.33 202.442C165.767 202.079 165.535 201.55 163.506 198.285C162.66 196.925 162.571 196.863 161.987 197.234ZM69.2685 200.097C68.6305 201.129 66.2638 206.17 66.2638 206.496C66.2638 206.737 67.8526 207.464 68.0083 207.295C68.325 206.95 71.4284 200.469 71.4284 200.151C71.4284 199.94 71.0663 199.64 70.6241 199.486C69.8804 199.226 69.7779 199.272 69.2685 200.097ZM154.195 199.818C153.666 200.206 153.691 200.29 155.285 203.52C156.182 205.338 157.06 206.946 157.236 207.093C157.45 207.272 157.826 207.221 158.374 206.937L159.192 206.514L158.246 204.464C156.033 199.674 155.393 198.94 154.195 199.818ZM76.1787 204.947C74.3708 209.362 74.4118 209.207 74.9756 209.508C75.5426 209.812 75.6326 209.657 77.0278 205.986C77.5467 204.621 77.6163 204.19 77.3464 204.019C76.7772 203.658 76.6726 203.741 76.1787 204.947ZM147.878 204.015C147.622 204.178 147.82 204.912 148.683 207.002C149.312 208.526 149.893 209.771 149.974 209.769C150.054 209.766 150.282 209.662 150.479 209.537C150.764 209.356 150.62 208.75 149.79 206.637C148.733 203.945 148.498 203.622 147.878 204.015ZM83.2993 206.442C83.1517 206.691 81.4857 211.893 81.4857 212.106C81.4857 212.19 81.7594 212.219 82.0937 212.171C82.6042 212.098 82.8437 211.648 83.5817 209.377C84.2457 207.332 84.3797 206.618 84.1286 206.458C83.7059 206.189 83.4526 206.184 83.2993 206.442ZM141.106 206.41C140.667 206.59 142.561 212.22 143.061 212.22C143.728 212.22 143.701 211.818 142.842 209.015C142.035 206.38 141.852 206.105 141.106 206.41ZM89.9591 209.433C88.8063 214.111 88.8419 213.875 89.2649 214.037C89.8525 214.263 89.9238 214.115 90.6226 211.224C91.1176 209.176 91.1866 208.528 90.927 208.363C90.3671 208.007 90.2891 208.093 89.9591 209.433ZM134.422 208.353C133.929 208.457 133.929 208.461 134.499 210.861C135.134 213.53 135.354 214.123 135.708 214.123C136.36 214.123 136.375 213.762 135.822 211.28C135.202 208.496 135.068 208.216 134.422 208.353ZM111.851 209.126C111.745 209.233 111.658 211.135 111.658 213.353V217.386H112.616H113.574L113.499 213.24L113.424 209.093L112.735 209.013C112.355 208.968 111.958 209.02 111.851 209.126ZM96.987 211.336C96.3536 214.968 96.3186 215.755 96.7896 215.755C97.0258 215.755 97.2805 215.655 97.3556 215.534C97.6084 215.125 98.3472 210.007 98.1903 209.753C97.7388 209.023 97.2865 209.618 96.987 211.336ZM126.983 210.793C127.508 214.633 127.741 215.483 128.267 215.483C128.903 215.483 128.917 215.029 128.374 211.948C128.151 210.677 127.967 209.607 127.967 209.569C127.967 209.531 127.706 209.501 127.386 209.501C126.85 209.501 126.819 209.6 126.983 210.793ZM104.22 211.578C104.124 212.272 104.047 213.679 104.047 214.705C104.047 216.148 104.135 216.57 104.438 216.57C105.027 216.57 105.073 216.389 105.285 213.234C105.472 210.433 105.458 210.317 104.936 210.317C104.495 210.317 104.36 210.555 104.22 211.578ZM120.152 210.497C119.773 210.65 119.712 212.273 119.987 214.899C120.137 216.333 120.239 216.57 120.707 216.57C121.222 216.57 121.242 216.449 121.077 214.327C120.981 213.093 120.902 211.687 120.901 211.2C120.899 210.323 120.804 210.234 120.152 210.497Z" fill="url(#paint0_linear_32_57)"/>
</g>
<defs>
<filter id="filter0_d_32_57" x="0" y="0" width="225" height="226" filterUnits="userSpaceOnUse" color-interpolation-filters="sRGB">
<feFlood flood-opacity="0" result="BackgroundImageFix"/>
<feColorMatrix in="SourceAlpha" type="matrix" values="0 0 0 0 0 0 0 0 0 0 0 0 0 0 0 0 0 0 127 0" result="hardAlpha"/>
<feOffset dy="2"/>
<feGaussianBlur stdDeviation="1"/>
<feComposite in2="hardAlpha" operator="out"/>
<feColorMatrix type="matrix" values="0 0 0 0 0 0 0 0 0 0 0 0 0 0 0 0 0 0 0.5 0"/>
<feBlend mode="normal" in2="BackgroundImageFix" result="effect1_dropShadow_32_57"/>
<feBlend mode="normal" in="SourceGraphic" in2="effect1_dropShadow_32_57" result="shape"/>
</filter>
<linearGradient id="paint0_linear_32_57" x1="112.5" y1="0" x2="112.5" y2="222" gradientUnits="userSpaceOnUse">
<stop stop-color="#A1A1A1"/>
<stop offset="0.350962" stop-color="#5C78A5"/>
<stop offset="0.65" stop-color="#4F6A7B"/>
<stop offset="1" stop-color="#7F7F7F"/>
</linearGradient>
</defs>
</svg>
