<svg preserveAspectRatio="none" width="100%" height="100%" overflow="visible" style="display: block;" viewBox="0 0 20 20" fill="none" xmlns="http://www.w3.org/2000/svg">
<g id="PhoneIcon" clip-path="url(#clip0_17_63)">
<path id="Vector" d="M11.2561 13.6561C11.4373 13.7394 11.6414 13.7583 11.8348 13.71C12.0282 13.6617 12.1994 13.5489 12.3202 13.3903L12.6316 12.9824C12.7949 12.7645 13.0069 12.5877 13.2505 12.4659C13.4941 12.3441 13.7627 12.2807 14.0351 12.2807H16.6666C17.132 12.2807 17.5782 12.4656 17.9072 12.7945C18.2362 13.1236 18.4211 13.5698 18.4211 14.0351V16.6666C18.4211 17.132 18.2362 17.5782 17.9072 17.9072C17.5782 18.2362 17.132 18.4211 16.6666 18.4211C12.4791 18.4211 8.46293 16.7575 5.50182 13.7964C2.54073 10.8354 0.877192 6.81921 0.877192 2.63158C0.877192 2.16628 1.06203 1.72005 1.39104 1.39104C1.72005 1.06203 2.16628 0.877192 2.63158 0.877192H5.26316C5.72845 0.877192 6.17468 1.06203 6.50369 1.39104C6.83271 1.72005 7.01755 2.16628 7.01755 2.63158V5.26316C7.01755 5.53552 6.95413 5.80414 6.83233 6.04775C6.71053 6.29135 6.53367 6.50325 6.31579 6.66666L5.90526 6.97456C5.74422 7.09753 5.63072 7.27244 5.58403 7.46961C5.53734 7.66677 5.56034 7.87401 5.64913 8.05614C6.84797 10.4911 8.81967 12.4603 11.2561 13.6561Z" stroke="var(--stroke-0, white)" stroke-width="1.75789" stroke-linecap="round" stroke-linejoin="round"/>
</g>
<defs>
<clipPath id="clip0_17_63">
<rect width="20" height="20" fill="white"/>
</clipPath>
</defs>
</svg>
