<svg preserveAspectRatio="none" width="100%" height="100%" overflow="visible" style="display: block;" viewBox="0 0 19 19" fill="none" xmlns="http://www.w3.org/2000/svg">
<path id="Vector" d="M10.6933 12.9733C10.8654 13.0524 11.0593 13.0704 11.2431 13.0245C11.4268 12.9786 11.5894 12.8715 11.7042 12.7208L12 12.3333C12.1552 12.1263 12.3566 11.9583 12.588 11.8426C12.8194 11.7269 13.0746 11.6667 13.3333 11.6667H15.8333C16.2754 11.6667 16.6993 11.8423 17.0118 12.1548C17.3244 12.4674 17.5 12.8913 17.5 13.3333V15.8333C17.5 16.2754 17.3244 16.6993 17.0118 17.0118C16.6993 17.3244 16.2754 17.5 15.8333 17.5C11.8551 17.5 8.03978 15.9196 5.22673 13.1066C2.41369 10.2936 0.833333 6.47825 0.833333 2.5C0.833333 2.05797 1.00893 1.63405 1.32149 1.32149C1.63405 1.00893 2.05797 0.833333 2.5 0.833333H5C5.44203 0.833333 5.86595 1.00893 6.17851 1.32149C6.49107 1.63405 6.66667 2.05797 6.66667 2.5V5C6.66667 5.25874 6.60642 5.51393 6.49071 5.74536C6.375 5.97678 6.20699 6.17809 6 6.33333L5.61 6.62583C5.45701 6.74265 5.34918 6.90882 5.30483 7.09613C5.26047 7.28343 5.28232 7.48031 5.36667 7.65333C6.50557 9.96655 8.37869 11.8373 10.6933 12.9733Z" stroke="var(--stroke-0, black)" stroke-width="1.66667" stroke-linecap="round" stroke-linejoin="round"/>
</svg>
