<svg preserveAspectRatio="none" width="100%" height="100%" overflow="visible" style="display: block;" viewBox="0 0 20 20" fill="none" xmlns="http://www.w3.org/2000/svg">
<path id="Vector" d="M12.106 3.31693C12.3836 3.45565 12.6897 3.52786 13 3.52786C13.3103 3.52786 13.6164 3.45565 13.894 3.31693L17.553 1.48693C17.7056 1.41069 17.8751 1.37474 18.0455 1.3825C18.2159 1.39026 18.3814 1.44147 18.5265 1.53126C18.6715 1.62106 18.7911 1.74645 18.874 1.89551C18.9569 2.04458 19.0003 2.21237 19 2.38293V15.1469C18.9999 15.3326 18.9481 15.5146 18.8505 15.6725C18.7528 15.8304 18.6131 15.9579 18.447 16.0409L13.894 18.3179C13.6164 18.4566 13.3103 18.5289 13 18.5289C12.6897 18.5289 12.3836 18.4566 12.106 18.3179L7.894 16.2119C7.6164 16.0732 7.31033 16.001 7 16.001C6.68967 16.001 6.3836 16.0732 6.106 16.2119L2.447 18.0419C2.29436 18.1182 2.12473 18.1542 1.95426 18.1464C1.78379 18.1385 1.61816 18.0872 1.47312 17.9973C1.32808 17.9074 1.20846 17.7819 1.12565 17.6327C1.04284 17.4835 0.999582 17.3156 1 17.1449V4.38193C1.0001 4.19627 1.05189 4.0143 1.14956 3.85641C1.24722 3.69851 1.38692 3.57092 1.553 3.48793L6.106 1.21093C6.3836 1.07222 6.68967 1 7 1C7.31033 1 7.6164 1.07222 7.894 1.21093L12.106 3.31693Z" stroke="var(--stroke-0, white)" stroke-width="2" stroke-linecap="round" stroke-linejoin="round"/>
</svg>
