<svg preserveAspectRatio="none" width="100%" height="100%" overflow="visible" style="display: block;" viewBox="0 0 19 15" fill="none" xmlns="http://www.w3.org/2000/svg">
<g id="Frame 253">
<path id="ico-twitter" d="M16.5703 3.73827C16.582 3.90232 16.582 4.06641 16.582 4.23047C16.582 9.23435 12.7735 15 5.81251 15C3.66796 15 1.67579 14.3789 0 13.3008C0.304699 13.3359 0.597638 13.3477 0.91406 13.3477C2.68356 13.3477 4.3125 12.75 5.61328 11.7305C3.94922 11.6953 2.55468 10.6055 2.0742 9.10547C2.3086 9.1406 2.54296 9.16405 2.78907 9.16405C3.12891 9.16405 3.46877 9.11715 3.78516 9.03516C2.05079 8.68357 0.749969 7.16015 0.749969 5.32031V5.27345C1.25386 5.5547 1.83984 5.73048 2.46089 5.75389C1.44136 5.07419 0.773416 3.91405 0.773416 2.60154C0.773416 1.89842 0.960881 1.25389 1.28903 0.691389C3.15232 2.98826 5.95311 4.48824 9.09371 4.65233C9.03513 4.37108 8.99996 4.07814 8.99996 3.78516C8.99996 1.6992 10.6875 0 12.7851 0C13.875 0 14.8593 0.45703 15.5507 1.19531C16.4062 1.03126 17.2265 0.714835 17.9531 0.281252C17.6718 1.16018 17.0742 1.89846 16.289 2.36718C17.0508 2.28519 17.789 2.0742 18.4687 1.78126C17.9532 2.53123 17.3086 3.19917 16.5703 3.73827Z" fill="var(--fill-0, white)"/>
</g>
</svg>
