<svg preserveAspectRatio="none" width="100%" height="100%" overflow="visible" style="display: block;" viewBox="0 0 20 16" fill="none" xmlns="http://www.w3.org/2000/svg">
<path id="Vector" d="M17.4424 3.93502C17.4547 4.10771 17.4547 4.28043 17.4547 4.45313C17.4547 9.72037 13.4458 15.7895 6.11843 15.7895C3.86101 15.7895 1.76399 15.1357 0 14.0008C0.320736 14.0378 0.629093 14.0502 0.962168 14.0502C2.8248 14.0502 4.53947 13.4211 5.90872 12.3479C4.15707 12.3108 2.68914 11.1637 2.18337 9.58471C2.43011 9.62168 2.6768 9.64637 2.93586 9.64637C3.29359 9.64637 3.65134 9.597 3.98438 9.5107C2.15873 9.1406 0.789441 7.537 0.789441 5.60033V5.551C1.31985 5.84705 1.93667 6.03208 2.59041 6.05673C1.51722 5.34125 0.814122 4.12005 0.814122 2.73846C0.814122 1.99834 1.01145 1.31988 1.35687 0.727778C3.31823 3.14554 6.26643 4.72446 9.57233 4.89719C9.51066 4.60114 9.47364 4.29278 9.47364 3.98438C9.47364 1.78863 11.25 0 13.458 0C14.6053 0 15.6414 0.481084 16.3692 1.25822C17.2697 1.08554 18.1332 0.752458 18.898 0.296055C18.6019 1.22124 17.9728 1.99838 17.1463 2.49177C17.9482 2.40546 18.7253 2.18337 19.4407 1.87501C18.8981 2.66445 18.2196 3.36755 17.4424 3.93502Z" fill="var(--fill-0, #171717)"/>
</svg>
