<svg width="199" height="55" viewBox="0 0 199 55" fill="none" xmlns="http://www.w3.org/2000/svg">
<path fill-rule="evenodd" clip-rule="evenodd" d="M36.8802 0.633256C32.0693 1.92356 28.1207 5.28818 25.935 9.95981C25.0075 11.9427 24.7371 13.2642 24.6164 16.4091C24.416 21.6279 25.4188 24.4186 28.8077 28.0711L31.2404 30.6934L30.2724 34.3186C29.7404 36.3121 28.2325 41.5168 26.9215 45.8839C25.6108 50.251 24.5385 54.1074 24.5385 54.4537C24.538 54.9911 27.0853 55.065 42.0223 54.9582C51.6384 54.8896 59.5533 54.7872 59.6101 54.7305C59.6669 54.6734 58.1299 49.2621 56.1943 42.7052L52.6751 30.7826L54.8221 28.6402C56.0028 27.4619 57.5424 25.3155 58.244 23.8706C59.3701 21.5492 59.5202 20.7573 59.5343 17.0683C59.548 13.4189 59.3987 12.5707 58.3461 10.3285C57.6838 8.91781 56.5405 7.00564 55.805 6.07923C51.8582 1.10612 43.7826 -1.21782 36.8802 0.633256ZM37.5302 9.10942C34.3206 10.5878 32.4656 13.5833 32.4656 17.2881C32.4656 21.2513 34.676 24.4977 38.0085 25.4289C39.0774 25.7278 39.9476 26.1936 39.9414 26.4643C39.9352 26.735 38.8756 31.3074 37.5866 36.625C36.2975 41.9427 35.3234 46.4416 35.4216 46.6231C35.6 46.9518 48.7604 47.1074 48.7604 46.7809C48.7604 46.6864 47.6704 42.125 46.3382 36.6448C45.006 31.1645 43.916 26.5175 43.916 26.318C43.916 26.1189 44.6039 25.8271 45.4446 25.6698C48.7864 25.0439 51.3755 21.3603 51.3931 17.2068C51.4099 13.2959 49.794 10.7087 46.3382 9.11205C44.0094 8.03578 39.8635 8.03491 37.5302 9.10942Z" fill="#FF6900"/>
<path d="M79.8903 32.0644C74.0745 32.0644 69.6668 30.7899 66.667 28.2409C63.6979 25.692 62.2134 21.9292 62.2134 16.9526C62.2134 11.9761 63.6826 8.21333 66.6211 5.66437C69.5902 3.1154 73.9827 1.84092 79.7984 1.84092C81.6044 1.84092 83.2267 1.97747 84.6653 2.25057C86.1346 2.49333 87.6191 2.88781 89.119 3.43402V13.0382C86.3335 11.7637 83.4715 11.1264 80.5331 11.1264C78.2374 11.1264 76.4926 11.5664 75.2989 12.4464C74.1357 13.3264 73.5541 14.8285 73.5541 16.9526C73.5541 19.0464 74.151 20.5485 75.3448 21.4589C76.5692 22.3389 78.3292 22.7789 80.6249 22.7789C83.5634 22.7789 86.4253 22.1416 89.2108 20.8671V30.4713C87.7109 31.0175 86.2264 31.412 84.7571 31.6547C83.3185 31.9278 81.6962 32.0644 79.8903 32.0644Z" fill="#FF6900"/>
<path d="M91.514 2.29609H102.625V10.4892L109.099 2.29609H121.634L111.533 14.4492L122.552 31.6092H110.798L104.737 21.4133L102.625 23.9623V31.6092H91.514V2.29609Z" fill="#FF6900"/>
<path d="M124.829 2.29609H148.474V10.2161H135.94V12.8561H146.729V21.0492H135.94V31.6092H124.829V2.29609Z" fill="#FF6900"/>
<path d="M149.848 2.29609H160.959V31.6092H149.848V2.29609Z" fill="#FF6900"/>
<path d="M174.436 16.634L163.784 2.29609H177.053L181.094 7.71264L185.18 2.29609H198.449L187.797 16.634L199 31.6092H185.547L181.094 25.6464L176.686 31.6092H163.233L174.436 16.634Z" fill="#FF6900"/>
<path d="M0 2.29609H11.1112V23.234H23.1865V31.6092H0V2.29609Z" fill="#FF6900"/>
</svg>
